<svg id="visual" viewBox="0 0 900 600" width="900" height="600" xmlns="http://www.w3.org/2000/svg" xmlns:xlink="http://www.w3.org/1999/xlink" version="1.1"><rect x="0" y="0" width="900" height="600" fill="#BFECFF"></rect><path d="M0 508L30 505.5C60 503 120 498 180 487.3C240 476.7 300 460.3 360 463.3C420 466.3 480 488.7 540 488.8C600 489 660 467 720 466.2C780 465.3 840 485.7 870 495.8L900 506L900 601L870 601C840 601 780 601 720 601C660 601 600 601 540 601C480 601 420 601 360 601C300 601 240 601 180 601C120 601 60 601 30 601L0 601Z" fill="#FFF6E3" stroke-linecap="round" stroke-linejoin="miter"></path></svg>